<svg id="Layer_1" data-name="Layer 1" xmlns="http://www.w3.org/2000/svg" viewBox="0 0 53.8 49.53"><defs><style>.cls-1{fill:#fff;}.cls-2{fill:#2f6ea0;}.cls-3{fill:#614399;}.cls-4{fill:#231f20;}</style></defs><title>logo-mobile</title><path class="cls-1" d="M53.69,15.11A16.64,16.64,0,0,0,47.46,4a16,16,0,0,0-12-3.26,15.62,15.62,0,0,0-8.14,3.56,33.55,33.55,0,0,0-3.16-2.2A16.2,16.2,0,0,0,3.62,5.89C.31,10-.64,15,.82,20.71A20.36,20.36,0,0,0,6.57,30.3a5.17,5.17,0,0,0,1.68,4,4.87,4.87,0,0,0,3.24,1.36A4.9,4.9,0,0,0,13,39a4.74,4.74,0,0,0,3.29,1.31,5.29,5.29,0,0,0,1.55,3.47,6.75,6.75,0,0,0,3.76,1.7c.48,2.05,1.38,3.17,2.94,3.69a5.23,5.23,0,0,0,1.58.25,4.35,4.35,0,0,0,3-1.13l.52-.49c2-1.85,3.84-3.72,4.51-5.13a4.43,4.43,0,0,0,4.12-.29,4,4,0,0,0,1.61-3.89,4.71,4.71,0,0,0,3.72-1.16,4.26,4.26,0,0,0,1.09-3.74,4.93,4.93,0,0,0,4-1.43,3.87,3.87,0,0,0,.78-3.79A17.3,17.3,0,0,0,53.69,15.11Z"/><path class="cls-2" d="M53.53,15.19A16.54,16.54,0,0,0,47.31,4.11a16,16,0,0,0-12-3.27,15.59,15.59,0,0,0-8.15,3.57A32.38,32.38,0,0,0,24,2.2,16.2,16.2,0,0,0,3.47,6C.15,10-.79,15,.66,20.78a20.43,20.43,0,0,0,5.75,9.6,5.2,5.2,0,0,0,1.68,4,4.89,4.89,0,0,0,3.25,1.36,4.89,4.89,0,0,0,1.47,3.32,4.76,4.76,0,0,0,3.29,1.32,5.37,5.37,0,0,0,1.56,3.47,6.71,6.71,0,0,0,3.75,1.69c.49,2.06,1.39,3.18,2.95,3.7a5.11,5.11,0,0,0,1.58.25,4.41,4.41,0,0,0,3-1.13l.52-.49c2-1.85,3.84-3.73,4.5-5.14a4.42,4.42,0,0,0,4.13-.28,4,4,0,0,0,1.61-3.89,4.78,4.78,0,0,0,3.71-1.16,4.3,4.3,0,0,0,1.1-3.74,5,5,0,0,0,4-1.44,3.88,3.88,0,0,0,.78-3.78A17.26,17.26,0,0,0,53.53,15.19ZM47.66,31.45a4.13,4.13,0,0,1-3.83,1L33.2,21.7a.59.59,0,1,0-.84.83l10.71,10.8a2.83,2.83,0,0,1-.51,3.27,3.2,3.2,0,0,1-3.41.58l0,0L28.25,26a.59.59,0,0,0-.83,0,.6.6,0,0,0,0,.84l10.93,11.2a3,3,0,0,1-1,3.49,3.35,3.35,0,0,1-3.21,0A6.25,6.25,0,0,0,33,38.67a4.21,4.21,0,0,0-3.76-1.47,4.61,4.61,0,0,0-.88-3.2,4.54,4.54,0,0,0-4-1.37,4.57,4.57,0,0,0-1.25-3.93A3.65,3.65,0,0,0,19.32,28a4.23,4.23,0,0,0-6.68-4.07l-.05.05L7,29.32A19.27,19.27,0,0,1,1.8,20.5c-1.37-5.45-.53-10,2.58-13.8A15,15,0,0,1,23.46,3.23a30.35,30.35,0,0,1,2.87,2L17,14.36a4.17,4.17,0,0,0-1.44,2.8,3.31,3.31,0,0,0,1.31,2.53c2.72,2.35,6.84,2,9.8-.71,1.37-1.28,4.88-4.72,6.09-5.91L48.13,28.69A2.79,2.79,0,0,1,47.66,31.45Z"/><path class="cls-3" d="M53.53,15.19A16.54,16.54,0,0,0,47.31,4.11a16,16,0,0,0-12-3.27,15.59,15.59,0,0,0-8.15,3.57A32.38,32.38,0,0,0,24,2.2,16.2,16.2,0,0,0,3.47,6C.15,10-.79,15,.66,20.78a20.43,20.43,0,0,0,5.75,9.6,5.2,5.2,0,0,0,1.68,4,4.89,4.89,0,0,0,3.25,1.36,4.89,4.89,0,0,0,1.47,3.32,4.76,4.76,0,0,0,3.29,1.32,5.37,5.37,0,0,0,1.56,3.47,6.71,6.71,0,0,0,3.75,1.69c.49,2.06,1.39,3.18,2.95,3.7a5.11,5.11,0,0,0,1.58.25,4.41,4.41,0,0,0,3-1.13l.52-.49c2-1.85,3.84-3.73,4.5-5.14a4.42,4.42,0,0,0,4.13-.28,4,4,0,0,0,1.61-3.89,4.78,4.78,0,0,0,3.71-1.16,4.3,4.3,0,0,0,1.1-3.74,5,5,0,0,0,4-1.44,3.88,3.88,0,0,0,.78-3.78A17.26,17.26,0,0,0,53.53,15.19ZM8.9,33.56A4,4,0,0,1,7.6,30.4l5.78-5.6a3,3,0,0,1,4.06.48,2.85,2.85,0,0,1,.38,3.38l-6.13,5.92A3.59,3.59,0,0,1,8.9,33.56Zm4.73,4.69a3.74,3.74,0,0,1-1.1-2.84l6.1-5.9c.33-.18,2.34-1.23,3.62,0a3.6,3.6,0,0,1,.8,3.49l-6.56,6.19A3.59,3.59,0,0,1,13.63,38.25Zm3.66,1.83,6.56-6.19c.53-.11,2.48-.42,3.58.87A4,4,0,0,1,28,37.83l-6.31,6.58A5.57,5.57,0,0,1,18.45,43,4.06,4.06,0,0,1,17.29,40.08Zm11.34,7a6.88,6.88,0,0,0-.52.5,3.45,3.45,0,0,1-3.38.61c-1.17-.39-1.82-1.27-2.2-3l6.34-6.59c1.1-.7,2.63.15,3.19.83A5.07,5.07,0,0,1,33,41.89C32.81,43.14,29.67,46.07,28.63,47.05Zm4.56-35.23a.58.58,0,0,0-.41-.17h0a.58.58,0,0,0-.41.17s-4.84,4.76-6.5,6.3c-2.5,2.34-6,2.62-8.22.68a2.19,2.19,0,0,1-.9-1.63,3,3,0,0,1,1.05-1.94L27.63,5.6A14.29,14.29,0,0,1,35.5,2,14.85,14.85,0,0,1,46.58,5a15.45,15.45,0,0,1,5.78,10.3,16,16,0,0,1-3.77,12.15Z"/><path class="cls-4" d="M53.53,15.19A16.54,16.54,0,0,0,47.31,4.11a16,16,0,0,0-12-3.27,15.59,15.59,0,0,0-8.15,3.57A32.38,32.38,0,0,0,24,2.2,16.2,16.2,0,0,0,3.47,6C.15,10-.79,15,.66,20.78a20.43,20.43,0,0,0,5.75,9.6,5.2,5.2,0,0,0,1.68,4,4.89,4.89,0,0,0,3.25,1.36,4.89,4.89,0,0,0,1.47,3.32,4.76,4.76,0,0,0,3.29,1.32,5.37,5.37,0,0,0,1.56,3.47,6.71,6.71,0,0,0,3.75,1.69c.49,2.06,1.39,3.18,2.95,3.7a5.11,5.11,0,0,0,1.58.25,4.41,4.41,0,0,0,3-1.13l.52-.49c2-1.85,3.84-3.73,4.5-5.14a4.42,4.42,0,0,0,4.13-.28,4,4,0,0,0,1.61-3.89,4.78,4.78,0,0,0,3.71-1.16,4.3,4.3,0,0,0,1.1-3.74,5,5,0,0,0,4-1.44,3.88,3.88,0,0,0,.78-3.78A17.26,17.26,0,0,0,53.53,15.19ZM8.9,33.56A4,4,0,0,1,7.6,30.4l5.78-5.6a3,3,0,0,1,4.06.48,2.85,2.85,0,0,1,.38,3.38l-6.13,5.92A3.59,3.59,0,0,1,8.9,33.56Zm4.73,4.69a3.74,3.74,0,0,1-1.1-2.84l6.1-5.9c.33-.18,2.34-1.23,3.62,0a3.6,3.6,0,0,1,.8,3.49l-6.56,6.19A3.59,3.59,0,0,1,13.63,38.25Zm3.66,1.83,6.56-6.19c.53-.11,2.48-.42,3.58.87A4,4,0,0,1,28,37.83l-6.31,6.58A5.57,5.57,0,0,1,18.45,43,4.06,4.06,0,0,1,17.29,40.08Zm11.34,7a6.88,6.88,0,0,0-.52.5,3.45,3.45,0,0,1-3.38.61c-1.17-.39-1.82-1.27-2.2-3l6.34-6.59c1.1-.7,2.63.15,3.19.83A5.07,5.07,0,0,1,33,41.89C32.81,43.14,29.67,46.07,28.63,47.05Zm19-15.6a4.13,4.13,0,0,1-3.83,1L33.2,21.7a.59.59,0,1,0-.84.83l10.71,10.8a2.83,2.83,0,0,1-.51,3.27,3.2,3.2,0,0,1-3.41.58l0,0L28.25,26a.59.59,0,0,0-.83,0,.6.6,0,0,0,0,.84l10.93,11.2a3,3,0,0,1-1,3.49,3.35,3.35,0,0,1-3.21,0A6.25,6.25,0,0,0,33,38.67a4.21,4.21,0,0,0-3.76-1.47,4.61,4.61,0,0,0-.88-3.2,4.54,4.54,0,0,0-4-1.37,4.57,4.57,0,0,0-1.25-3.93A3.65,3.65,0,0,0,19.32,28a4.23,4.23,0,0,0-6.68-4.07l-.05.05L7,29.32A19.27,19.27,0,0,1,1.8,20.5c-1.37-5.45-.53-10,2.58-13.8A15,15,0,0,1,23.46,3.23a30.35,30.35,0,0,1,2.87,2L17,14.36a4.17,4.17,0,0,0-1.44,2.8,3.31,3.31,0,0,0,1.31,2.53c2.72,2.35,6.84,2,9.8-.71,1.37-1.28,4.88-4.72,6.09-5.91L48.13,28.69A2.79,2.79,0,0,1,47.66,31.45ZM33.19,11.82a.58.58,0,0,0-.41-.17h0a.58.58,0,0,0-.41.17s-4.84,4.76-6.5,6.3c-2.5,2.34-6,2.62-8.22.68a2.19,2.19,0,0,1-.9-1.63,3,3,0,0,1,1.05-1.94L27.63,5.6A14.29,14.29,0,0,1,35.5,2,14.85,14.85,0,0,1,46.58,5a15.45,15.45,0,0,1,5.78,10.3,16,16,0,0,1-3.77,12.15Z"/></svg>