<svg id="Layer_1" data-name="Layer 1" xmlns="http://www.w3.org/2000/svg" viewBox="0 0 280.62 66.87"><defs><style>.cls-1{fill:#fff;}.cls-2{fill:#2f6ea1;}.cls-3{fill:#61439a;}</style></defs><title>website-logotype-darkbg</title><path class="cls-1" d="M179.57,264.84a22.37,22.37,0,0,0-8.4-14.95A21.57,21.57,0,0,0,155,245.48a21,21,0,0,0-11,4.81,47.64,47.64,0,0,0-4.26-3A21.89,21.89,0,0,0,112,252.39c-4.47,5.51-5.75,12.24-3.78,20a27.42,27.42,0,0,0,7.76,13,7,7,0,0,0,2.27,5.46,6.57,6.57,0,0,0,4.38,1.83,6.58,6.58,0,0,0,2,4.49A6.36,6.36,0,0,0,129,298.9a7.18,7.18,0,0,0,2.1,4.69,9.16,9.16,0,0,0,5.07,2.29c.65,2.77,1.87,4.28,4,5a7,7,0,0,0,2.13.34,6,6,0,0,0,4-1.53c.13-.14.38-.37.7-.67,2.67-2.49,5.19-5,6.08-6.93,1.71.72,4.14.74,5.57-.38a5.38,5.38,0,0,0,2.18-5.25,6.4,6.4,0,0,0,5-1.57,5.76,5.76,0,0,0,1.48-5.05,6.66,6.66,0,0,0,5.44-1.94,5.24,5.24,0,0,0,1.06-5.11A23.36,23.36,0,0,0,179.57,264.84Z" transform="translate(-107.09 -244.44)"/><path class="cls-1" d="M196,252.74a10,10,0,0,1,3.19,2l-2.05,2.37a8.1,8.1,0,0,0-2.36-1.42,7.11,7.11,0,0,0-2.54-.45,4.09,4.09,0,0,0-2.45.68,2.23,2.23,0,0,0-.94,1.92,2.4,2.4,0,0,0,.37,1.36,3.47,3.47,0,0,0,1.31,1,20.06,20.06,0,0,0,2.81,1,12.93,12.93,0,0,1,4.86,2.51,5.71,5.71,0,0,1,1.62,4.38,6.22,6.22,0,0,1-1,3.48A6.67,6.67,0,0,1,196,274a10.58,10.58,0,0,1-4.43.86,11.68,11.68,0,0,1-4.47-.81,10.44,10.44,0,0,1-3.4-2.2l2.15-2.4a9.7,9.7,0,0,0,2.62,1.63,7.91,7.91,0,0,0,3,.55,4.59,4.59,0,0,0,2.9-.85,2.86,2.86,0,0,0,1.11-2.41,3,3,0,0,0-.38-1.56,3.29,3.29,0,0,0-1.29-1.11,16.09,16.09,0,0,0-2.66-1,12.58,12.58,0,0,1-5-2.6,5.33,5.33,0,0,1-1.55-4,5.39,5.39,0,0,1,.95-3.16,6.35,6.35,0,0,1,2.64-2.12,9.24,9.24,0,0,1,3.84-.76A10.92,10.92,0,0,1,196,252.74Z" transform="translate(-107.09 -244.44)"/><path class="cls-1" d="M213.67,274.39l-1.36-5.06h-7.24l-1.36,5.06h-4.33l6.8-21.84h5.15l6.77,21.84Zm-7.78-8.22h5.57l-2.78-10.43Z" transform="translate(-107.09 -244.44)"/><path class="cls-1" d="M234.28,252.55l-6.48,21.84h-5l-6.67-21.84h4.49l4.74,18.14L230,252.55Z" transform="translate(-107.09 -244.44)"/><path class="cls-1" d="M239.75,252.55v21.84h-4.17V252.55Z" transform="translate(-107.09 -244.44)"/><path class="cls-1" d="M259.86,274.39h-5.41L247,256.72c.19,1.56.33,3,.43,4.24s.14,2.77.14,4.52v8.91h-3.79V252.55H249l7.62,17.7c-.13-.84-.26-2-.38-3.34s-.19-2.75-.19-4.12V252.55h3.79Z" transform="translate(-107.09 -244.44)"/><path class="cls-1" d="M276.47,252.72a11,11,0,0,1,3.15,1.91L277.37,257a9.5,9.5,0,0,0-2.19-1.33,6.5,6.5,0,0,0-2.39-.41,5.05,5.05,0,0,0-4.14,2c-1.08,1.34-1.61,3.41-1.61,6.19s.42,5,1.28,6.29a4.34,4.34,0,0,0,3.9,1.93,6.85,6.85,0,0,0,3.48-.85v-5.69h-3.29L272,262h7.84v10.69a14.3,14.3,0,0,1-7.53,2.15,8.91,8.91,0,0,1-7.16-2.91q-2.47-2.91-2.48-8.51A13.1,13.1,0,0,1,264,257.3a9.38,9.38,0,0,1,3.62-3.9,9.77,9.77,0,0,1,5.05-1.33A10.42,10.42,0,0,1,276.47,252.72Z" transform="translate(-107.09 -244.44)"/><path class="cls-1" d="M293.81,252.55V271h8.76l-.47,3.41H289.64V252.55Z" transform="translate(-107.09 -244.44)"/><path class="cls-1" d="M308.67,252.55v21.84H304.5V252.55Z" transform="translate(-107.09 -244.44)"/><path class="cls-1" d="M328.05,252.55l-6.48,21.84h-5l-6.67-21.84h4.49l4.74,18.14,4.61-18.14Z" transform="translate(-107.09 -244.44)"/><path class="cls-1" d="M342,252.55l-.45,3.09h-8.06v6.11h7v3.09h-7v6.42h8.63v3.13h-12.8V252.55Z" transform="translate(-107.09 -244.44)"/><path class="cls-1" d="M355,252.74a10.15,10.15,0,0,1,3.19,2l-2.06,2.37a8.06,8.06,0,0,0-2.35-1.42,7.12,7.12,0,0,0-2.55-.45,4.11,4.11,0,0,0-2.45.68,2.24,2.24,0,0,0-.93,1.92,2.39,2.39,0,0,0,.36,1.36,3.52,3.52,0,0,0,1.32,1,20.06,20.06,0,0,0,2.81,1,12.8,12.8,0,0,1,4.85,2.51,5.67,5.67,0,0,1,1.63,4.38,6.22,6.22,0,0,1-1,3.48,6.64,6.64,0,0,1-2.87,2.37,10.5,10.5,0,0,1-4.42.86,11.73,11.73,0,0,1-4.48-.81,10.5,10.5,0,0,1-3.39-2.2l2.15-2.4a9.55,9.55,0,0,0,2.62,1.63,7.89,7.89,0,0,0,3,.55,4.64,4.64,0,0,0,2.91-.85,2.86,2.86,0,0,0,1.11-2.41,3,3,0,0,0-.38-1.56,3.33,3.33,0,0,0-1.3-1.11,15.58,15.58,0,0,0-2.65-1,12.51,12.51,0,0,1-5-2.6,5.33,5.33,0,0,1-1.55-4,5.39,5.39,0,0,1,.95-3.16,6.23,6.23,0,0,1,2.64-2.12,9.24,9.24,0,0,1,3.84-.76A10.92,10.92,0,0,1,355,252.74Z" transform="translate(-107.09 -244.44)"/><path class="cls-2" d="M179.37,264.94A22.42,22.42,0,0,0,171,250a21.57,21.57,0,0,0-16.16-4.41,21,21,0,0,0-11,4.81,47.09,47.09,0,0,0-4.27-3,21.86,21.86,0,0,0-27.76,5.07c-4.48,5.51-5.76,12.24-3.79,20a27.66,27.66,0,0,0,7.76,13,7,7,0,0,0,2.27,5.45,6.57,6.57,0,0,0,4.38,1.83,6.56,6.56,0,0,0,2,4.49,6.42,6.42,0,0,0,4.44,1.78,7.22,7.22,0,0,0,2.1,4.68A9.06,9.06,0,0,0,136,306c.66,2.78,1.87,4.28,4,5a7,7,0,0,0,2.13.34,5.91,5.91,0,0,0,4-1.53l.7-.66c2.67-2.5,5.19-5,6.08-6.93,1.71.71,4.14.73,5.57-.38a5.4,5.4,0,0,0,2.18-5.26,6.42,6.42,0,0,0,5-1.56,5.79,5.79,0,0,0,1.48-5.06A6.68,6.68,0,0,0,172.6,288a5.26,5.26,0,0,0,1.05-5.11A23.44,23.44,0,0,0,179.37,264.94Zm-7.93,22a5.58,5.58,0,0,1-5.17,1.32l-14.36-14.49a.8.8,0,0,0-1.13,1.12l14.46,14.59a3.83,3.83,0,0,1-.69,4.41c-.93.92-3.27,1.65-4.61.78l-.06,0-14.65-15a.79.79,0,0,0-1.13,1.11l14.75,15.12a4,4,0,0,1-1.32,4.71c-1.05.82-3.14.68-4.34,0a8.41,8.41,0,0,0-1.58-3.9,5.74,5.74,0,0,0-5.08-2,5.48,5.48,0,0,0-6.6-6.17,6.18,6.18,0,0,0-1.69-5.3,4.91,4.91,0,0,0-5.07-1,5.71,5.71,0,0,0-9-5.5l-.07.06L116.57,284a25.86,25.86,0,0,1-7-11.91c-1.86-7.35-.72-13.45,3.48-18.62a20.29,20.29,0,0,1,25.76-4.68,44.12,44.12,0,0,1,3.86,2.69L130,263.83a5.58,5.58,0,0,0-1.94,3.78,4.44,4.44,0,0,0,1.76,3.41c3.68,3.17,9.24,2.77,13.23-.95,1.86-1.73,6.6-6.38,8.23-8l20.75,21.1A3.75,3.75,0,0,1,171.44,286.9Z" transform="translate(-107.09 -244.44)"/><path class="cls-3" d="M179.37,264.94A22.42,22.42,0,0,0,171,250a21.57,21.57,0,0,0-16.16-4.41,21,21,0,0,0-11,4.81,47.09,47.09,0,0,0-4.27-3,21.86,21.86,0,0,0-27.76,5.07c-4.48,5.51-5.76,12.24-3.79,20a27.66,27.66,0,0,0,7.76,13,7,7,0,0,0,2.27,5.45,6.57,6.57,0,0,0,4.38,1.83,6.56,6.56,0,0,0,2,4.49,6.42,6.42,0,0,0,4.44,1.78,7.22,7.22,0,0,0,2.1,4.68A9.06,9.06,0,0,0,136,306c.66,2.78,1.87,4.28,4,5a7,7,0,0,0,2.13.34,5.91,5.91,0,0,0,4-1.53l.7-.66c2.67-2.5,5.19-5,6.08-6.93,1.71.71,4.14.73,5.57-.38a5.4,5.4,0,0,0,2.18-5.26,6.42,6.42,0,0,0,5-1.56,5.79,5.79,0,0,0,1.48-5.06A6.68,6.68,0,0,0,172.6,288a5.26,5.26,0,0,0,1.05-5.11A23.44,23.44,0,0,0,179.37,264.94ZM119.1,289.75a5.42,5.42,0,0,1-1.75-4.26l7.81-7.57a4,4,0,0,1,5.47.64,3.86,3.86,0,0,1,.52,4.57l-8.28,8A4.83,4.83,0,0,1,119.1,289.75Zm6.39,6.33a5.08,5.08,0,0,1-1.49-3.84l8.25-8c.43-.25,3.15-1.66,4.88,0a4.86,4.86,0,0,1,1.08,4.71l-8.86,8.35A4.79,4.79,0,0,1,125.49,296.08Zm4.94,2.47,8.87-8.36c.7-.15,3.34-.56,4.82,1.18,1.12,1.33.83,3.5.71,4.15l-8.52,8.87a7.41,7.41,0,0,1-4.31-1.87A5.54,5.54,0,0,1,130.43,298.55ZM145.75,308c-.35.31-.61.56-.71.67a4.65,4.65,0,0,1-4.56.83c-1.58-.53-2.45-1.72-3-4l8.55-8.9c1.5-.93,3.56.21,4.32,1.13a7.07,7.07,0,0,1,1.27,3.34C151.38,302.68,147.15,306.64,145.75,308Zm6.15-47.56a.84.84,0,0,0-.56-.24h0a.79.79,0,0,0-.55.23c-.07.07-6.53,6.43-8.77,8.52-3.39,3.15-8.06,3.54-11.11.91a3,3,0,0,1-1.21-2.19,4.13,4.13,0,0,1,1.42-2.63l13.28-13A19.25,19.25,0,0,1,155,247.15a20,20,0,0,1,15,4.09,20.85,20.85,0,0,1,7.81,13.89,21.75,21.75,0,0,1-5.09,16.42Z" transform="translate(-107.09 -244.44)"/><path class="cls-1" d="M179.37,264.94A22.42,22.42,0,0,0,171,250a21.57,21.57,0,0,0-16.16-4.41,21,21,0,0,0-11,4.81,47.09,47.09,0,0,0-4.27-3,21.86,21.86,0,0,0-27.76,5.07c-4.48,5.51-5.76,12.24-3.79,20a27.66,27.66,0,0,0,7.76,13,7,7,0,0,0,2.27,5.45,6.57,6.57,0,0,0,4.38,1.83,6.56,6.56,0,0,0,2,4.49,6.42,6.42,0,0,0,4.44,1.78,7.22,7.22,0,0,0,2.1,4.68A9.06,9.06,0,0,0,136,306c.66,2.78,1.87,4.28,4,5a7,7,0,0,0,2.13.34,5.91,5.91,0,0,0,4-1.53l.7-.66c2.67-2.5,5.19-5,6.08-6.93,1.71.71,4.14.73,5.57-.38a5.4,5.4,0,0,0,2.18-5.26,6.42,6.42,0,0,0,5-1.56,5.79,5.79,0,0,0,1.48-5.06A6.68,6.68,0,0,0,172.6,288a5.26,5.26,0,0,0,1.05-5.11A23.44,23.44,0,0,0,179.37,264.94ZM119.1,289.75a5.42,5.42,0,0,1-1.75-4.26l7.81-7.57a4,4,0,0,1,5.47.64,3.86,3.86,0,0,1,.52,4.57l-8.28,8A4.83,4.83,0,0,1,119.1,289.75Zm6.39,6.33a5.08,5.08,0,0,1-1.49-3.84l8.25-8c.43-.25,3.15-1.66,4.88,0a4.86,4.86,0,0,1,1.08,4.71l-8.86,8.35A4.79,4.79,0,0,1,125.49,296.08Zm4.94,2.47,8.87-8.36c.7-.15,3.34-.56,4.82,1.18,1.12,1.33.83,3.5.71,4.15l-8.52,8.87a7.41,7.41,0,0,1-4.31-1.87A5.54,5.54,0,0,1,130.43,298.55ZM145.75,308c-.35.31-.61.56-.71.67a4.65,4.65,0,0,1-4.56.83c-1.58-.53-2.45-1.72-3-4l8.55-8.9c1.5-.93,3.56.21,4.32,1.13a7.07,7.07,0,0,1,1.27,3.34C151.38,302.68,147.15,306.64,145.75,308Zm25.69-21.06a5.58,5.58,0,0,1-5.17,1.32l-14.36-14.49a.8.8,0,0,0-1.13,1.12l14.46,14.59a3.83,3.83,0,0,1-.69,4.41c-.93.92-3.27,1.65-4.61.78l-.06,0-14.65-15a.79.79,0,0,0-1.13,1.11l14.75,15.12a4,4,0,0,1-1.32,4.71c-1.05.82-3.14.68-4.34,0a8.41,8.41,0,0,0-1.58-3.9,5.74,5.74,0,0,0-5.08-2,5.48,5.48,0,0,0-6.6-6.17,6.18,6.18,0,0,0-1.69-5.3,4.91,4.91,0,0,0-5.07-1,5.71,5.71,0,0,0-9-5.5l-.07.06L116.57,284a25.86,25.86,0,0,1-7-11.91c-1.86-7.35-.72-13.45,3.48-18.62a20.29,20.29,0,0,1,25.76-4.68,44.12,44.12,0,0,1,3.86,2.69L130,263.83a5.58,5.58,0,0,0-1.94,3.78,4.44,4.44,0,0,0,1.76,3.41c3.68,3.17,9.24,2.77,13.23-.95,1.86-1.73,6.6-6.38,8.23-8l20.75,21.1A3.75,3.75,0,0,1,171.44,286.9ZM151.9,260.4a.84.84,0,0,0-.56-.24h0a.79.79,0,0,0-.55.23c-.07.07-6.53,6.43-8.77,8.52-3.39,3.15-8.06,3.54-11.11.91a3,3,0,0,1-1.21-2.19,4.13,4.13,0,0,1,1.42-2.63l13.28-13A19.25,19.25,0,0,1,155,247.15a20,20,0,0,1,15,4.09,20.85,20.85,0,0,1,7.81,13.89,21.75,21.75,0,0,1-5.09,16.42Z" transform="translate(-107.09 -244.44)"/><path class="cls-1" d="M188.1,280v21.85h-4.17V280Z" transform="translate(-107.09 -244.44)"/><path class="cls-1" d="M202.39,280.23a10.07,10.07,0,0,1,3.19,2l-2.05,2.37a8.15,8.15,0,0,0-2.36-1.43,7.33,7.33,0,0,0-2.54-.44,4.06,4.06,0,0,0-2.45.68,2.21,2.21,0,0,0-.94,1.91,2.32,2.32,0,0,0,.37,1.36,3.39,3.39,0,0,0,1.31,1,20.06,20.06,0,0,0,2.81,1,12.79,12.79,0,0,1,4.86,2.51,5.68,5.68,0,0,1,1.62,4.38,6.22,6.22,0,0,1-1,3.48,6.67,6.67,0,0,1-2.86,2.37,10.58,10.58,0,0,1-4.43.85,11.87,11.87,0,0,1-4.47-.8,10.44,10.44,0,0,1-3.4-2.2l2.15-2.4a9.66,9.66,0,0,0,2.62,1.62,7.91,7.91,0,0,0,3,.56,4.59,4.59,0,0,0,2.9-.86,2.86,2.86,0,0,0,1.11-2.4,3,3,0,0,0-.38-1.56,3.29,3.29,0,0,0-1.29-1.11,16,16,0,0,0-2.66-1,12.46,12.46,0,0,1-5-2.59,5.33,5.33,0,0,1-1.55-4,5.39,5.39,0,0,1,.95-3.16,6.15,6.15,0,0,1,2.64-2.12,9.24,9.24,0,0,1,3.84-.76A11.14,11.14,0,0,1,202.39,280.23Z" transform="translate(-107.09 -244.44)"/><path class="cls-1" d="M231.54,301.89h-5.41l-7.49-17.67q.29,2.34.42,4.23c.1,1.27.15,2.77.15,4.52v8.92h-3.8V280h5.28l7.62,17.71c-.12-.85-.25-2-.38-3.34s-.19-2.75-.19-4.12V280h3.8Z" transform="translate(-107.09 -244.44)"/><path class="cls-1" d="M249,280.9a8.55,8.55,0,0,1,3.3,3.88,15,15,0,0,1,1.16,6.17,14.64,14.64,0,0,1-1.17,6.13A8.81,8.81,0,0,1,249,301a9.25,9.25,0,0,1-5.06,1.36,9.44,9.44,0,0,1-5.09-1.33,8.59,8.59,0,0,1-3.32-3.88,16.72,16.72,0,0,1,0-12.29,8.8,8.8,0,0,1,3.33-3.93,9.34,9.34,0,0,1,5.08-1.36A9.47,9.47,0,0,1,249,280.9Zm-9,3.84c-.88,1.31-1.33,3.4-1.33,6.24q0,8.19,5.19,8.19a4.33,4.33,0,0,0,3.84-2c.87-1.31,1.31-3.39,1.31-6.26s-.44-4.92-1.31-6.23a4.75,4.75,0,0,0-7.7,0Z" transform="translate(-107.09 -244.44)"/><path class="cls-1" d="M269.16,280l-.44,3.32H263v18.53h-4.2V283.36h-5.88V280Z" transform="translate(-107.09 -244.44)"/><path class="cls-1" d="M289.08,301.89l-1.36-5.06h-7.24l-1.36,5.06h-4.33L281.58,280h5.16l6.76,21.85Zm-7.78-8.22h5.56l-2.78-10.43Z" transform="translate(-107.09 -244.44)"/><path class="cls-1" d="M313.39,280.14a10.4,10.4,0,0,1,2.9,1.74l-2.11,2.46a6.41,6.41,0,0,0-4.05-1.55,4.65,4.65,0,0,0-3.9,2q-1.47,2-1.47,6.17t1.45,6.1a4.61,4.61,0,0,0,3.92,2,5.51,5.51,0,0,0,2.31-.46,11.49,11.49,0,0,0,2.15-1.31l2,2.47a8.84,8.84,0,0,1-2.8,1.89,9.08,9.08,0,0,1-3.78.76,9.41,9.41,0,0,1-5-1.33,8.67,8.67,0,0,1-3.39-3.9,14.64,14.64,0,0,1-1.2-6.21,14,14,0,0,1,1.25-6.14,8.88,8.88,0,0,1,8.3-5.21A9.69,9.69,0,0,1,313.39,280.14Z" transform="translate(-107.09 -244.44)"/><path class="cls-1" d="M325.21,293.13h-2.66v8.76h-4.17V280h6.51q8.67,0,8.67,6.42a5.77,5.77,0,0,1-1.08,3.6,7.45,7.45,0,0,1-3.35,2.31l5.72,9.52h-4.8Zm-2.66-3h2.6a4.59,4.59,0,0,0,3-.87,3.49,3.49,0,0,0,1-2.8,3,3,0,0,0-1.06-2.58,5.55,5.55,0,0,0-3.33-.8h-2.25Z" transform="translate(-107.09 -244.44)"/><path class="cls-1" d="M340.73,280v21.85h-4.17V280Z" transform="translate(-107.09 -244.44)"/><path class="cls-1" d="M365.42,301.89h-4.08l-.56-9.14q-.28-4.9-.29-7.78v-1.13l-4,15.68h-3.95l-4.24-15.72c0,1.4.06,2.45.06,3.17q0,2.86-.19,5.91l-.53,9h-4.05L345.35,280h5.37l3.89,15.3,3.67-15.3h5.44Z" transform="translate(-107.09 -244.44)"/><path class="cls-1" d="M381,280l-.44,3.1h-8.07v6.1h7v3.1h-7v6.42h8.63v3.13H368.3V280Z" transform="translate(-107.09 -244.44)"/><path class="cls-1" d="M387,298a2.45,2.45,0,0,1,.76,1.82,2.43,2.43,0,0,1-.76,1.8,2.48,2.48,0,0,1-1.83.76,2.4,2.4,0,0,1-1.79-.76,2.6,2.6,0,0,1,0-3.62,2.42,2.42,0,0,1,1.8-.74A2.54,2.54,0,0,1,387,298Z" transform="translate(-107.09 -244.44)"/></svg>